<?xml version="1.0" standalone="no"?>
<!DOCTYPE svg PUBLIC "-//W3C//DTD SVG 20010904//EN"
 "http://www.w3.org/TR/2001/REC-SVG-20010904/DTD/svg10.dtd">
<svg version="1.0" xmlns="http://www.w3.org/2000/svg"
 width="320.000000pt" height="320.000000pt" viewBox="0 0 320.000000 320.000000"
 preserveAspectRatio="xMidYMid meet">

<g transform="translate(0.000000,320.000000) scale(0.100000,-0.100000)"
fill="#ffffff" stroke="none">
<path d="M1222 2128 c-16 -16 -16 -100 0 -116 15 -15 360 -17 389 -2 14 8 19
21 19 54 0 73 -9 76 -216 76 -127 0 -184 -4 -192 -12z"/>
<path d="M278 1460 c-106 -32 -158 -153 -108 -250 39 -77 147 -119 234 -90 29
9 36 17 36 37 0 20 -4 24 -17 18 -36 -15 -113 -17 -143 -5 -49 20 -80 65 -80
113 0 54 17 86 60 115 29 20 44 23 90 19 30 -2 63 -8 73 -12 14 -6 17 -2 17
18 0 22 -7 28 -37 36 -44 13 -87 13 -125 1z"/>
<path d="M1863 1445 c-27 -16 -49 -40 -62 -68 -68 -141 39 -287 189 -257 25 5
48 9 53 10 4 0 7 19 7 41 0 38 -2 41 -22 34 -13 -4 -44 -10 -70 -12 -42 -4
-50 -2 -73 23 -20 21 -25 37 -25 76 0 41 5 54 29 79 33 33 64 36 118 14 19 -8
37 -15 39 -15 2 0 4 18 4 39 0 35 -3 40 -31 50 -53 18 -110 13 -156 -14z"/>
<path d="M2191 1453 c-18 -9 -47 -35 -62 -56 -24 -33 -29 -50 -29 -98 0 -72 9
-96 50 -136 94 -92 259 -43 290 85 35 149 -113 272 -249 205z m131 -64 c52
-28 59 -136 12 -180 -32 -30 -93 -32 -123 -5 -49 45 -48 146 2 181 25 18 80
20 109 4z"/>
<path d="M2510 1295 l0 -175 78 0 c139 1 205 55 205 169 0 60 -17 103 -55 139
-33 30 -79 42 -160 42 l-68 0 0 -175z m176 82 c20 -18 28 -35 32 -75 4 -47 2
-54 -26 -82 -24 -24 -39 -30 -71 -30 l-41 0 0 105 0 105 39 0 c27 0 48 -7 67
-23z"/>
<path d="M2860 1435 l0 -35 95 0 95 0 0 35 0 35 -95 0 -95 0 0 -35z"/>
<path d="M500 1290 l0 -170 81 0 c77 0 80 1 77 22 -3 19 -10 21 -55 22 l-53 1
0 147 0 148 -25 0 -25 0 0 -170z"/>
<path d="M720 1290 l0 -170 96 0 c93 0 95 1 92 22 -3 20 -8 22 -70 21 l-68 0
0 58 0 59 70 0 c68 0 70 1 70 25 0 24 -2 25 -70 25 l-70 0 0 40 0 40 70 0 c68
0 70 1 70 25 0 25 0 25 -95 25 l-95 0 0 -170z"/>
<path d="M1052 1297 c-39 -89 -72 -166 -72 -170 0 -5 10 -7 22 -5 17 2 32 27
70 113 27 61 52 113 57 118 4 4 31 -47 61 -113 46 -104 56 -120 77 -120 22 0
23 1 9 33 -52 122 -139 307 -145 307 -3 0 -39 -73 -79 -163z"/>
<path d="M1358 1290 c3 -161 4 -170 22 -170 19 0 20 8 20 123 l1 122 124 -130
124 -130 1 178 c0 170 -1 177 -20 177 -19 0 -20 -7 -20 -120 0 -66 -2 -120 -3
-120 -2 0 -57 54 -122 120 -66 66 -121 120 -124 120 -4 0 -5 -76 -3 -170z"/>
<path d="M2860 1225 l0 -105 95 0 95 0 0 35 0 35 -60 0 -60 0 0 35 0 35 60 0
60 0 0 35 0 35 -95 0 -95 0 0 -105z"/>
<path d="M921 976 c-10 -11 -5 -20 24 -42 24 -18 34 -32 30 -43 -5 -13 -4 -14
7 -3 11 11 6 19 -25 46 -30 25 -35 34 -25 44 6 6 9 12 6 12 -3 0 -11 -6 -17
-14z"/>
<path d="M950 986 c0 -2 7 -7 16 -10 8 -3 12 -2 9 4 -6 10 -25 14 -25 6z"/>
<path d="M1088 979 c-10 -5 -23 -20 -29 -32 l-10 -22 18 22 c10 12 29 27 43
32 14 5 18 10 10 10 -8 0 -23 -4 -32 -10z"/>
<path d="M1150 986 c0 -2 7 -7 16 -10 8 -3 12 -2 9 4 -6 10 -25 14 -25 6z"/>
<path d="M1513 945 c0 -27 2 -38 4 -22 2 15 2 37 0 50 -2 12 -4 0 -4 -28z"/>
<path d="M1602 983 c13 -3 18 -18 21 -56 l3 -52 2 58 c2 53 1 57 -20 56 -17
-1 -18 -3 -6 -6z"/>
<path d="M2260 986 c0 -2 7 -7 16 -10 8 -3 12 -2 9 4 -6 10 -25 14 -25 6z"/>
<path d="M1421 938 c0 -26 3 -49 7 -52 4 -2 6 12 4 32 -6 62 -10 69 -11 20z"/>
<path d="M1723 930 c0 -30 2 -43 4 -27 2 15 2 39 0 55 -2 15 -4 2 -4 -28z"/>
<path d="M1816 964 c-18 -17 -21 -50 -7 -58 5 -4 7 3 4 14 -3 12 2 29 12 40
21 24 13 27 -9 4z"/>
<path d="M1935 962 c19 -23 19 -24 1 -55 l-18 -32 21 19 c27 25 27 48 -1 72
l-23 19 20 -23z"/>
<path d="M2032 928 c1 -50 2 -51 5 -10 2 23 8 42 12 42 4 0 20 -14 37 -31 52
-55 60 -55 61 4 0 47 0 48 -4 10 -2 -24 -8 -43 -12 -43 -4 0 -20 14 -37 31
-16 17 -37 35 -46 40 -16 9 -18 4 -16 -43z"/>
<path d="M2221 968 c0 -9 13 -25 29 -35 17 -9 30 -26 30 -36 0 -10 5 -15 10
-12 15 9 -7 44 -35 57 -13 6 -26 18 -28 27 -4 14 -5 14 -6 -1z"/>
<path d="M1195 929 c-1 -22 2 -33 7 -26 10 15 10 54 1 60 -5 3 -8 -12 -8 -34z"/>
<path d="M1060 913 c0 -6 8 -17 18 -24 16 -13 16 -13 2 6 -8 11 -16 22 -17 24
-2 2 -3 0 -3 -6z"/>
<path d="M938 873 c7 -3 16 -2 19 1 4 3 -2 6 -13 5 -11 0 -14 -3 -6 -6z"/>
<path d="M1123 873 c9 -2 23 -2 30 0 6 3 -1 5 -18 5 -16 0 -22 -2 -12 -5z"/>
<path d="M1458 873 c6 -2 18 -2 25 0 6 3 1 5 -13 5 -14 0 -19 -2 -12 -5z"/>
<path d="M1863 873 c9 -2 23 -2 30 0 6 3 -1 5 -18 5 -16 0 -22 -2 -12 -5z"/>
<path d="M2248 873 c7 -3 16 -2 19 1 4 3 -2 6 -13 5 -11 0 -14 -3 -6 -6z"/>
</g>
</svg>
